<svg width="960" height="540" viewBox="0 0 960 540" xmlns="http://www.w3.org/2000/svg" role="img" aria-labelledby="mapTitle mapDesc">
  <title id="mapTitle">Map legend and zone focus preview</title>
  <desc id="mapDesc">Illustration of the Guardian Beacon map canvas with an always-visible legend and a focused zone sheet showing outline and parent glow.</desc>
  <defs>
    <linearGradient id="mapBg" x1="0" y1="0" x2="1" y2="1">
      <stop offset="0%" stop-color="#0c1423" />
      <stop offset="100%" stop-color="#030712" />
    </linearGradient>
    <filter id="zoneGlow" x="-50%" y="-50%" width="200%" height="200%">
      <feDropShadow dx="0" dy="0" stdDeviation="6" flood-color="#38bdf8" flood-opacity="0.65" />
    </filter>
  </defs>
  <rect width="960" height="540" fill="url(#mapBg)" />
  <rect x="80" y="70" width="520" height="360" rx="32" fill="rgba(15,23,42,0.78)" stroke="rgba(148,163,184,0.3)" stroke-width="1.5" />
  <g opacity="0.35" stroke="#1f2937" stroke-width="1">
    <path d="M120 110h440" />
    <path d="M120 150h440" />
    <path d="M120 190h440" />
    <path d="M120 230h440" />
    <path d="M120 270h440" />
    <path d="M120 310h440" />
    <path d="M120 350h440" />
    <path d="M120 390h440" />
    <path d="M160 90v320" />
    <path d="M200 90v320" />
    <path d="M240 90v320" />
    <path d="M280 90v320" />
    <path d="M320 90v320" />
    <path d="M360 90v320" />
    <path d="M400 90v320" />
    <path d="M440 90v320" />
    <path d="M480 90v320" />
    <path d="M520 90v320" />
  </g>
  <g>
    <rect x="108" y="342" width="460" height="68" rx="26" fill="rgba(15,23,42,0.85)" stroke="#38bdf8" stroke-width="3" filter="url(#zoneGlow)" />
    <rect x="118" y="352" width="440" height="48" rx="22" fill="rgba(8,12,24,0.95)" stroke="rgba(56,189,248,0.4)" stroke-width="1.5" />
    <text x="138" y="376" font-family="'Inter', sans-serif" font-size="16" fill="#f1f5f9" font-weight="600">Transit Corridor</text>
    <text x="138" y="396" font-family="'Inter', sans-serif" font-size="11" fill="#bae6fd" letter-spacing="4">UNDER WATCH • UPDATED 2 MIN AGO</text>
  </g>
  <g>
    <rect x="96" y="280" width="180" height="36" rx="18" fill="rgba(15,118,110,0.22)" stroke="#34d399" stroke-width="2" />
    <text x="110" y="302" font-family="'Inter', sans-serif" font-size="13" fill="#ccfbf1" font-weight="600">GPS Stable</text>
    <rect x="286" y="280" width="180" height="36" rx="18" fill="rgba(59,130,246,0.22)" stroke="#3b82f6" stroke-width="2" />
    <text x="300" y="302" font-family="'Inter', sans-serif" font-size="13" fill="#dbeafe" font-weight="600">Latency 42ms</text>
  </g>
  <g transform="translate(640 92)">
    <rect width="220" height="220" rx="26" fill="rgba(8,12,24,0.92)" stroke="rgba(148,163,184,0.3)" stroke-width="1.5" />
    <text x="22" y="38" font-family="'Inter', sans-serif" font-size="12" fill="#60a5fa" letter-spacing="4">LEGEND</text>
    <g transform="translate(22 56)">
      <rect width="24" height="24" rx="12" fill="rgba(34,197,94,0.2)" stroke="#22c55e" stroke-width="2" />
      <text x="36" y="16" font-family="'Inter', sans-serif" font-size="13" fill="#f8fafc" font-weight="600">Safe Zone</text>
      <text x="36" y="32" font-family="'Inter', sans-serif" font-size="11" fill="#cbd5f5">Guarded campus entry</text>
    </g>
    <g transform="translate(22 116)">
      <rect width="24" height="24" rx="12" fill="rgba(59,130,246,0.2)" stroke="#3b82f6" stroke-width="2" />
      <text x="36" y="16" font-family="'Inter', sans-serif" font-size="13" fill="#f8fafc" font-weight="600">Guardian</text>
      <text x="36" y="32" font-family="'Inter', sans-serif" font-size="11" fill="#cbd5f5">Trusted contact on patrol</text>
    </g>
    <g transform="translate(22 176)">
      <rect width="24" height="24" rx="12" fill="rgba(248,113,113,0.2)" stroke="#f87171" stroke-width="2" />
      <text x="36" y="16" font-family="'Inter', sans-serif" font-size="13" fill="#fef3c7" font-weight="600">Alert</text>
      <text x="36" y="32" font-family="'Inter', sans-serif" font-size="11" fill="#fde68a">Incident under review</text>
    </g>
  </g>
  <text x="80" y="48" font-family="'Space Grotesk', sans-serif" font-size="26" fill="#38bdf8" letter-spacing="6">MAP LEGEND &amp; FOCUS PREVIEW</text>
</svg>
